<svg width="139" height="136" viewBox="0 0 139 136" fill="none" xmlns="http://www.w3.org/2000/svg">
<ellipse cx="69.5" cy="68" rx="69.5" ry="68" fill="#551414"/>
<path d="M60.2499 45.9091H61.8351V55.267C61.8351 56.1023 61.6817 56.8118 61.3749 57.3956C61.0681 57.9794 60.6356 58.4226 60.0773 58.7251C59.5191 59.0277 58.8607 59.179 58.1022 59.179C57.3863 59.179 56.7492 59.049 56.191 58.7891C55.6327 58.5249 55.1938 58.1499 54.8742 57.6641C54.5546 57.1783 54.3948 56.6009 54.3948 55.9318H55.9545C55.9545 56.3026 56.0461 56.6264 56.2293 56.9034C56.4168 57.1761 56.6725 57.3892 56.9964 57.5426C57.3202 57.696 57.6888 57.7727 58.1022 57.7727C58.5581 57.7727 58.9459 57.6768 59.2655 57.4851C59.5851 57.2933 59.828 57.0121 59.9942 56.6413C60.1647 56.2663 60.2499 55.8082 60.2499 55.267V45.9091ZM68.7961 59.2045C67.9097 59.2045 67.132 58.9936 66.463 58.5717C65.7982 58.1499 65.2783 57.5597 64.9033 56.8011C64.5326 56.0426 64.3472 55.1562 64.3472 54.142C64.3472 53.1193 64.5326 52.2266 64.9033 51.4638C65.2783 50.701 65.7982 50.1087 66.463 49.6868C67.132 49.2649 67.9097 49.054 68.7961 49.054C69.6824 49.054 70.458 49.2649 71.1228 49.6868C71.7918 50.1087 72.3117 50.701 72.6824 51.4638C73.0574 52.2266 73.2449 53.1193 73.2449 54.142C73.2449 55.1562 73.0574 56.0426 72.6824 56.8011C72.3117 57.5597 71.7918 58.1499 71.1228 58.5717C70.458 58.9936 69.6824 59.2045 68.7961 59.2045ZM68.7961 57.8494C69.4694 57.8494 70.0233 57.6768 70.458 57.3317C70.8927 56.9865 71.2144 56.5327 71.4232 55.9702C71.632 55.4077 71.7364 54.7983 71.7364 54.142C71.7364 53.4858 71.632 52.8743 71.4232 52.3075C71.2144 51.7408 70.8927 51.2827 70.458 50.9332C70.0233 50.5838 69.4694 50.4091 68.7961 50.4091C68.1228 50.4091 67.5688 50.5838 67.1341 50.9332C66.6995 51.2827 66.3778 51.7408 66.1689 52.3075C65.9601 52.8743 65.8557 53.4858 65.8557 54.142C65.8557 54.7983 65.9601 55.4077 66.1689 55.9702C66.3778 56.5327 66.6995 56.9865 67.1341 57.3317C67.5688 57.6768 68.1228 57.8494 68.7961 57.8494ZM75.7522 59V45.9091H77.2607V50.7415H77.3886C77.4994 50.571 77.6528 50.3537 77.8488 50.0895C78.0491 49.821 78.3346 49.5824 78.7053 49.3736C79.0803 49.1605 79.5874 49.054 80.2267 49.054C81.0534 49.054 81.782 49.2607 82.4127 49.674C83.0434 50.0874 83.5356 50.6733 83.8893 51.4318C84.243 52.1903 84.4198 53.0852 84.4198 54.1165C84.4198 55.1562 84.243 56.0575 83.8893 56.8203C83.5356 57.5788 83.0455 58.1669 82.4191 58.5845C81.7927 58.9979 81.0704 59.2045 80.2522 59.2045C79.6215 59.2045 79.1166 59.1001 78.7373 58.8913C78.358 58.6783 78.0661 58.4375 77.8616 58.169C77.657 57.8963 77.4994 57.6705 77.3886 57.4915H77.2096V59H75.7522ZM77.2352 54.0909C77.2352 54.8324 77.3438 55.4865 77.5612 56.0533C77.7785 56.6158 78.096 57.0568 78.5136 57.3764C78.9312 57.6918 79.4426 57.8494 80.0477 57.8494C80.6784 57.8494 81.2046 57.6832 81.6265 57.3509C82.0526 57.0142 82.3722 56.5625 82.5853 55.9957C82.8026 55.4247 82.9113 54.7898 82.9113 54.0909C82.9113 53.4006 82.8048 52.7784 82.5917 52.2244C82.3829 51.6662 82.0654 51.2251 81.6393 50.9013C81.2174 50.5732 80.6869 50.4091 80.0477 50.4091C79.434 50.4091 78.9184 50.5646 78.5008 50.8757C78.0832 51.1825 77.7678 51.6129 77.5548 52.1669C77.3417 52.7166 77.2352 53.358 77.2352 54.0909ZM44.0461 71.1818C43.9694 70.5341 43.6583 70.0312 43.1128 69.6733C42.5674 69.3153 41.8983 69.1364 41.1057 69.1364C40.5262 69.1364 40.0191 69.2301 39.5844 69.4176C39.154 69.6051 38.8174 69.8629 38.5745 70.1911C38.3358 70.5192 38.2165 70.892 38.2165 71.3097C38.2165 71.6591 38.2996 71.9595 38.4658 72.2109C38.6363 72.4581 38.8536 72.6648 39.1178 72.831C39.382 72.9929 39.659 73.1271 39.9488 73.2337C40.2385 73.3359 40.5049 73.419 40.7478 73.483L42.0773 73.8409C42.4182 73.9304 42.7975 74.054 43.2151 74.2116C43.637 74.3693 44.0397 74.5845 44.4232 74.8572C44.811 75.1257 45.1306 75.4709 45.382 75.8928C45.6334 76.3146 45.7591 76.8324 45.7591 77.446C45.7591 78.1534 45.5738 78.7926 45.203 79.3636C44.8366 79.9347 44.2996 80.3885 43.5922 80.7251C42.8891 81.0618 42.0347 81.2301 41.029 81.2301C40.0915 81.2301 39.2797 81.0788 38.5937 80.7763C37.9118 80.4737 37.3749 80.0518 36.9829 79.5107C36.5951 78.9695 36.3756 78.3409 36.3245 77.625H37.9608C38.0035 78.1193 38.1697 78.5284 38.4594 78.8523C38.7535 79.1719 39.1242 79.4105 39.5716 79.5682C40.0233 79.7216 40.5091 79.7983 41.029 79.7983C41.6341 79.7983 42.1775 79.7003 42.659 79.5043C43.1405 79.304 43.5219 79.027 43.8032 78.6733C44.0844 78.3153 44.2251 77.8977 44.2251 77.4205C44.2251 76.9858 44.1036 76.6321 43.8607 76.3594C43.6178 76.0866 43.2982 75.8651 42.9019 75.6946C42.5056 75.5241 42.0773 75.375 41.6171 75.2472L40.0063 74.7869C38.9836 74.4929 38.1739 74.0732 37.5773 73.5277C36.9807 72.9822 36.6824 72.2685 36.6824 71.3864C36.6824 70.6534 36.8806 70.0142 37.2769 69.4688C37.6775 68.919 38.2144 68.4929 38.8877 68.1903C39.5653 67.8835 40.3216 67.7301 41.1569 67.7301C42.0006 67.7301 42.7506 67.8814 43.4069 68.1839C44.0631 68.4822 44.583 68.8913 44.9665 69.4112C45.3543 69.9311 45.5589 70.5213 45.5802 71.1818H44.0461ZM52.2774 81.2045C51.3314 81.2045 50.5154 80.9957 49.8293 80.5781C49.1475 80.1562 48.6212 79.5682 48.2504 78.8139C47.884 78.0554 47.7007 77.1733 47.7007 76.1676C47.7007 75.1619 47.884 74.2756 48.2504 73.5085C48.6212 72.7372 49.1368 72.1364 49.7973 71.706C50.4621 71.2713 51.2377 71.054 52.124 71.054C52.6354 71.054 53.1404 71.1392 53.6389 71.3097C54.1375 71.4801 54.5914 71.7571 55.0004 72.1406C55.4095 72.5199 55.7355 73.0227 55.9784 73.6491C56.2213 74.2756 56.3428 75.0469 56.3428 75.9631V76.6023H48.7746V75.2983H54.8087C54.8087 74.7443 54.6979 74.25 54.4763 73.8153C54.259 73.3807 53.9479 73.0376 53.5431 72.7862C53.1425 72.5348 52.6695 72.4091 52.124 72.4091C51.5232 72.4091 51.0033 72.5582 50.5644 72.8565C50.1297 73.1506 49.7952 73.5341 49.5608 74.0071C49.3264 74.4801 49.2093 74.9872 49.2093 75.5284V76.3977C49.2093 77.1392 49.3371 77.7678 49.5928 78.2834C49.8527 78.7947 50.2128 79.1847 50.673 79.4531C51.1333 79.7173 51.6681 79.8494 52.2774 79.8494C52.6737 79.8494 53.0317 79.794 53.3513 79.6832C53.6752 79.5682 53.9543 79.3977 54.1887 79.1719C54.423 78.9418 54.6041 78.6562 54.732 78.3153L56.1894 78.7244C56.036 79.2188 55.7781 79.6534 55.4159 80.0284C55.0537 80.3991 54.6063 80.6889 54.0736 80.8977C53.5409 81.1023 52.9422 81.2045 52.2774 81.2045ZM62.754 81.2045C61.808 81.2045 60.9919 80.9957 60.3058 80.5781C59.624 80.1562 59.0977 79.5682 58.727 78.8139C58.3605 78.0554 58.1773 77.1733 58.1773 76.1676C58.1773 75.1619 58.3605 74.2756 58.727 73.5085C59.0977 72.7372 59.6134 72.1364 60.2739 71.706C60.9387 71.2713 61.7142 71.054 62.6006 71.054C63.1119 71.054 63.6169 71.1392 64.1155 71.3097C64.6141 71.4801 65.0679 71.7571 65.477 72.1406C65.8861 72.5199 66.2121 73.0227 66.455 73.6491C66.6979 74.2756 66.8193 75.0469 66.8193 75.9631V76.6023H59.2512V75.2983H65.2852C65.2852 74.7443 65.1744 74.25 64.9529 73.8153C64.7355 73.3807 64.4244 73.0376 64.0196 72.7862C63.6191 72.5348 63.146 72.4091 62.6006 72.4091C61.9997 72.4091 61.4798 72.5582 61.0409 72.8565C60.6063 73.1506 60.2718 73.5341 60.0374 74.0071C59.803 74.4801 59.6858 74.9872 59.6858 75.5284V76.3977C59.6858 77.1392 59.8137 77.7678 60.0693 78.2834C60.3293 78.7947 60.6894 79.1847 61.1496 79.4531C61.6098 79.7173 62.1446 79.8494 62.754 79.8494C63.1503 79.8494 63.5083 79.794 63.8279 79.6832C64.1517 79.5682 64.4308 79.3977 64.6652 79.1719C64.8996 78.9418 65.0807 78.6562 65.2085 78.3153L66.6659 78.7244C66.5125 79.2188 66.2547 79.6534 65.8925 80.0284C65.5303 80.3991 65.0828 80.6889 64.5502 80.8977C64.0175 81.1023 63.4188 81.2045 62.754 81.2045ZM70.5203 77.4205L70.4948 75.554H70.8016L75.097 71.1818H76.9635L72.3868 75.8097H72.259L70.5203 77.4205ZM69.1141 81V67.9091H70.6226V81H69.1141ZM75.3527 81L71.5175 76.142L72.5914 75.0938L77.2703 81H75.3527ZM82.6173 81.2045C81.6713 81.2045 80.8552 80.9957 80.1691 80.5781C79.4873 80.1562 78.961 79.5682 78.5903 78.8139C78.2238 78.0554 78.0406 77.1733 78.0406 76.1676C78.0406 75.1619 78.2238 74.2756 78.5903 73.5085C78.961 72.7372 79.4767 72.1364 80.1372 71.706C80.8019 71.2713 81.5775 71.054 82.4639 71.054C82.9752 71.054 83.4802 71.1392 83.9788 71.3097C84.4774 71.4801 84.9312 71.7571 85.3403 72.1406C85.7494 72.5199 86.0754 73.0227 86.3183 73.6491C86.5612 74.2756 86.6826 75.0469 86.6826 75.9631V76.6023H79.1144V75.2983H85.1485C85.1485 74.7443 85.0377 74.25 84.8161 73.8153C84.5988 73.3807 84.2877 73.0376 83.8829 72.7862C83.4823 72.5348 83.0093 72.4091 82.4639 72.4091C81.863 72.4091 81.3431 72.5582 80.9042 72.8565C80.4695 73.1506 80.135 73.5341 79.9007 74.0071C79.6663 74.4801 79.5491 74.9872 79.5491 75.5284V76.3977C79.5491 77.1392 79.6769 77.7678 79.9326 78.2834C80.1926 78.7947 80.5526 79.1847 81.0129 79.4531C81.4731 79.7173 82.0079 79.8494 82.6173 79.8494C83.0136 79.8494 83.3715 79.794 83.6911 79.6832C84.015 79.5682 84.2941 79.3977 84.5285 79.1719C84.7629 78.9418 84.944 78.6562 85.0718 78.3153L86.5292 78.7244C86.3758 79.2188 86.118 79.6534 85.7558 80.0284C85.3936 80.3991 84.9461 80.6889 84.4134 80.8977C83.8808 81.1023 83.282 81.2045 82.6173 81.2045ZM88.9774 81V71.1818H90.4347V72.6648H90.537C90.716 72.179 91.0399 71.7848 91.5086 71.4822C91.9774 71.1797 92.5058 71.0284 93.0938 71.0284C93.2046 71.0284 93.3431 71.0305 93.5093 71.0348C93.6755 71.0391 93.8012 71.0455 93.8865 71.054V72.5881C93.8353 72.5753 93.7181 72.5561 93.5349 72.5305C93.3559 72.5007 93.1663 72.4858 92.966 72.4858C92.4887 72.4858 92.0626 72.5859 91.6876 72.7862C91.3169 72.9822 91.0228 73.255 90.8055 73.6044C90.5924 73.9496 90.4859 74.3437 90.4859 74.7869V81H88.9774ZM102.629 73.3807L101.274 73.7642C101.189 73.5384 101.063 73.3189 100.897 73.1058C100.735 72.8885 100.513 72.7095 100.232 72.5689C99.9509 72.4283 99.5908 72.358 99.1519 72.358C98.551 72.358 98.0503 72.4964 97.6498 72.7734C97.2535 73.0462 97.0553 73.3935 97.0553 73.8153C97.0553 74.1903 97.1917 74.4865 97.4644 74.7038C97.7371 74.9212 98.1633 75.1023 98.7428 75.2472L100.2 75.6051C101.078 75.8182 101.732 76.1442 102.163 76.5831C102.593 77.0178 102.808 77.5781 102.808 78.2642C102.808 78.8267 102.646 79.3295 102.322 79.7727C102.003 80.2159 101.555 80.5653 100.98 80.821C100.405 81.0767 99.7357 81.2045 98.9729 81.2045C97.9715 81.2045 97.1427 80.9872 96.4864 80.5526C95.8302 80.1179 95.4147 79.483 95.24 78.6477L96.6718 78.2898C96.8081 78.8182 97.066 79.2145 97.4452 79.4787C97.8287 79.7429 98.3295 79.875 98.9474 79.875C99.6505 79.875 100.209 79.7259 100.622 79.4276C101.04 79.125 101.248 78.7628 101.248 78.3409C101.248 78 101.129 77.7145 100.891 77.4844C100.652 77.25 100.285 77.0753 99.7911 76.9602L98.1547 76.5767C97.2556 76.3636 96.5951 76.0334 96.1732 75.5859C95.7556 75.1342 95.5468 74.5696 95.5468 73.892C95.5468 73.3381 95.7023 72.848 96.0134 72.4219C96.3287 71.9957 96.757 71.6612 97.2982 71.4183C97.8437 71.1754 98.4616 71.054 99.1519 71.054C100.123 71.054 100.886 71.267 101.44 71.6932C101.998 72.1193 102.395 72.6818 102.629 73.3807Z" fill="white"/>
</svg>
